<mxfile host="65bd71144e">
    <diagram id="yvF_BCKWY6jokInHEsWj" name="Page-1">
        <mxGraphModel dx="1604" dy="1151" grid="1" gridSize="10" guides="1" tooltips="1" connect="1" arrows="1" fold="1" page="1" pageScale="1" pageWidth="827" pageHeight="1169" math="0" shadow="0">
            <root>
                <mxCell id="0"/>
                <mxCell id="1" parent="0"/>
                <mxCell id="2" value="LEGO IDEA" style="text;html=1;align=center;verticalAlign=middle;resizable=0;points=[];autosize=1;strokeColor=none;fillColor=none;fontSize=20;fontFamily=Architects Daughter;sketch=1;hachureGap=4;jiggle=2;curveFitting=1;fontSource=https%3A%2F%2Ffonts.googleapis.com%2Fcss%3Ffamily%3DArchitects%2BDaughter;" vertex="1" parent="1">
                    <mxGeometry x="284" y="20" width="130" height="40" as="geometry"/>
                </mxCell>
                <mxCell id="3" value="&lt;div style=&quot;background-color: rgb(30, 30, 30); font-family: Menlo, Monaco, &amp;quot;Courier New&amp;quot;, monospace; font-size: 15px; line-height: 23px;&quot;&gt;&lt;div style=&quot;&quot;&gt;&lt;span style=&quot;color: rgb(152, 114, 162);&quot;&gt;export&lt;/span&gt; &lt;span style=&quot;color: rgb(152, 114, 162);&quot;&gt;function&lt;/span&gt;&lt;font color=&quot;#c5c8c6&quot;&gt;&amp;nbsp;&lt;/font&gt;&lt;font color=&quot;#ce6700&quot;&gt;legoManagerSays&lt;/font&gt;&lt;font color=&quot;#c5c8c6&quot;&gt;(&lt;/font&gt;&lt;span style=&quot;color: rgb(96, 137, 180);&quot;&gt;string&lt;/span&gt;&lt;font color=&quot;#c5c8c6&quot;&gt;) {&lt;/font&gt;&lt;/div&gt;&lt;div style=&quot;color: rgb(197, 200, 198);&quot;&gt;  &lt;span style=&quot;color: #9a9b99;&quot;&gt;// Good luck!&lt;/span&gt;&lt;/div&gt;&lt;div style=&quot;color: rgb(197, 200, 198);&quot;&gt;}&lt;/div&gt;&lt;/div&gt;" style="text;html=1;align=center;verticalAlign=middle;resizable=0;points=[];autosize=1;strokeColor=none;fillColor=none;fontSize=20;fontFamily=Architects Daughter;sketch=1;hachureGap=4;jiggle=2;curveFitting=1;fontSource=https%3A%2F%2Ffonts.googleapis.com%2Fcss%3Ffamily%3DArchitects%2BDaughter;" vertex="1" parent="1">
                    <mxGeometry x="154" y="60" width="390" height="80" as="geometry"/>
                </mxCell>
                <mxCell id="4" value="1. Before a lego figure can be sold, it must have a pair of legs, a body, a head and an accessory//&lt;br&gt;&lt;br&gt;If it can be sold, then you must return true, if it can't be sold, then you must return false&lt;br&gt;&lt;br&gt;NOTE: An accessory can be a spanner, a blaster, or a lightsaber&lt;br&gt;" style="text;html=1;align=center;verticalAlign=middle;resizable=0;points=[];autosize=1;strokeColor=none;fillColor=none;fontSize=20;fontFamily=Architects Daughter;sketch=1;hachureGap=4;jiggle=2;curveFitting=1;fontSource=https%3A%2F%2Ffonts.googleapis.com%2Fcss%3Ffamily%3DArchitects%2BDaughter;" vertex="1" parent="1">
                    <mxGeometry x="-80" y="140" width="940" height="130" as="geometry"/>
                </mxCell>
                <mxCell id="7" value="Listen to what your manager says!!!&lt;span style=&quot;white-space: pre;&quot;&gt;&#9;&lt;/span&gt;&lt;br&gt;can the LEGO figure be sold?&amp;nbsp;" style="text;html=1;align=center;verticalAlign=middle;resizable=0;points=[];autosize=1;strokeColor=none;fillColor=none;fontSize=20;fontFamily=Architects Daughter;sketch=1;hachureGap=4;jiggle=2;curveFitting=1;fontSource=https%3A%2F%2Ffonts.googleapis.com%2Fcss%3Ffamily%3DArchitects%2BDaughter;" vertex="1" parent="1">
                    <mxGeometry x="170" y="350" width="410" height="60" as="geometry"/>
                </mxCell>
                <mxCell id="8" value="You are part of the LEGO quality assurance team. To make you job easier you decide to make a&amp;nbsp;&lt;br&gt;function which checks whether a particular LEGO minifigure/ person can be sold based on completeness.&lt;br&gt;&lt;br&gt;Your function will take in a string which represents what your manager has told you about the &lt;br&gt;LEGO minifigure/ person&lt;br&gt;&amp;nbsp;" style="text;html=1;align=center;verticalAlign=middle;resizable=0;points=[];autosize=1;strokeColor=none;fillColor=none;fontSize=20;fontFamily=Architects Daughter;sketch=1;hachureGap=4;jiggle=2;curveFitting=1;fontSource=https%3A%2F%2Ffonts.googleapis.com%2Fcss%3Ffamily%3DArchitects%2BDaughter;" vertex="1" parent="1">
                    <mxGeometry x="-120" y="410" width="1020" height="160" as="geometry"/>
                </mxCell>
                <mxCell id="9" value="A complete LEGO minifigure/ person will have a &lt;br&gt;- pair of legs, &lt;br&gt;- torso &lt;br&gt;- head &lt;br&gt;- headpeice (hair or hat)&lt;br&gt;- An accessory (Spanner, blaster or lightsaber)" style="text;html=1;align=center;verticalAlign=middle;resizable=0;points=[];autosize=1;strokeColor=none;fillColor=none;fontSize=20;fontFamily=Architects Daughter;sketch=1;hachureGap=4;jiggle=2;curveFitting=1;fontSource=https%3A%2F%2Ffonts.googleapis.com%2Fcss%3Ffamily%3DArchitects%2BDaughter;" vertex="1" parent="1">
                    <mxGeometry x="170" y="560" width="470" height="160" as="geometry"/>
                </mxCell>
                <mxCell id="10" value="If a LEGO minifigure/ person is complete, you will need to return &quot;complete&quot;" style="text;html=1;align=center;verticalAlign=middle;resizable=0;points=[];autosize=1;strokeColor=none;fillColor=none;fontSize=20;fontFamily=Architects Daughter;sketch=1;hachureGap=4;jiggle=2;curveFitting=1;fontSource=https%3A%2F%2Ffonts.googleapis.com%2Fcss%3Ffamily%3DArchitects%2BDaughter;" vertex="1" parent="1">
                    <mxGeometry y="750" width="730" height="40" as="geometry"/>
                </mxCell>
                <mxCell id="11" value="if a LEGO minifigure/ person is incomplete, you will have to return what &lt;br&gt;is missing so that it can be completed later on!" style="text;html=1;align=center;verticalAlign=middle;resizable=0;points=[];autosize=1;strokeColor=none;fillColor=none;fontSize=20;fontFamily=Architects Daughter;sketch=1;hachureGap=4;jiggle=2;curveFitting=1;fontSource=https%3A%2F%2Ffonts.googleapis.com%2Fcss%3Ffamily%3DArchitects%2BDaughter;" vertex="1" parent="1">
                    <mxGeometry x="15" y="820" width="700" height="60" as="geometry"/>
                </mxCell>
                <mxCell id="12" value="e.g&amp;nbsp; &quot;this lego figure has legs, torso, head, hair and a spanner&quot;" style="text;html=1;align=center;verticalAlign=middle;resizable=0;points=[];autosize=1;strokeColor=none;fillColor=none;fontSize=20;fontFamily=Architects Daughter;sketch=1;hachureGap=4;jiggle=2;curveFitting=1;fontSource=https%3A%2F%2Ffonts.googleapis.com%2Fcss%3Ffamily%3DArchitects%2BDaughter;" vertex="1" parent="1">
                    <mxGeometry x="-205" y="950" width="590" height="40" as="geometry"/>
                </mxCell>
                <mxCell id="13" value="return complete" style="text;html=1;align=center;verticalAlign=middle;resizable=0;points=[];autosize=1;strokeColor=none;fillColor=none;fontSize=20;fontFamily=Architects Daughter;sketch=1;hachureGap=4;jiggle=2;curveFitting=1;fontSource=https%3A%2F%2Ffonts.googleapis.com%2Fcss%3Ffamily%3DArchitects%2BDaughter;" vertex="1" parent="1">
                    <mxGeometry x="450" y="950" width="180" height="40" as="geometry"/>
                </mxCell>
                <mxCell id="14" value="e.g &quot;this lego figure has legs, torso and a hat&quot;&amp;nbsp;" style="text;html=1;align=center;verticalAlign=middle;resizable=0;points=[];autosize=1;strokeColor=none;fillColor=none;fontSize=20;fontFamily=Architects Daughter;sketch=1;hachureGap=4;jiggle=2;curveFitting=1;fontSource=https%3A%2F%2Ffonts.googleapis.com%2Fcss%3Ffamily%3DArchitects%2BDaughter;" vertex="1" parent="1">
                    <mxGeometry x="-205" y="1020" width="450" height="40" as="geometry"/>
                </mxCell>
                <mxCell id="16" value="return [head, accessory]&amp;nbsp;" style="text;html=1;align=center;verticalAlign=middle;resizable=0;points=[];autosize=1;strokeColor=none;fillColor=none;fontSize=20;fontFamily=Architects Daughter;sketch=1;hachureGap=4;jiggle=2;curveFitting=1;fontSource=https%3A%2F%2Ffonts.googleapis.com%2Fcss%3Ffamily%3DArchitects%2BDaughter;" vertex="1" parent="1">
                    <mxGeometry x="405" y="1020" width="270" height="40" as="geometry"/>
                </mxCell>
            </root>
        </mxGraphModel>
    </diagram>
</mxfile>